<svg height="590" width="720" xmlns="http://www.w3.org/2000/svg">
<rect height="590" fill="#555" width="720"></rect>
<text fill="#7f7" font-family="Courier New" font-size="12" xml:space="preserve">
<tspan x="10" y="26">2 megabytes installed</tspan>
<tspan x="10" y="42"></tspan>
<tspan x="10" y="58">node_modules</tspan>
<tspan x="10" y="74">└─┬ licensor@3.1.0 </tspan>
<tspan x="10" y="90">  ├── apache-2.0@1.0.7 </tspan>
<tspan x="10" y="106">  ├─┬ glob@6.0.4 </tspan>
<tspan x="10" y="122">  │ ├─┬ inflight@1.0.6 </tspan>
<tspan x="10" y="138">  │ │ └── wrappy@1.0.2 </tspan>
<tspan x="10" y="154">  │ ├── inherits@2.0.3 </tspan>
<tspan x="10" y="170">  │ ├─┬ minimatch@3.0.3 </tspan>
<tspan x="10" y="186">  │ │ └─┬ brace-expansion@1.1.7 </tspan>
<tspan x="10" y="202">  │ │   ├── balanced-match@0.4.2 </tspan>
<tspan x="10" y="218">  │ │   └── concat-map@0.0.1 </tspan>
<tspan x="10" y="234">  │ ├── once@1.4.0 </tspan>
<tspan x="10" y="250">  │ └── path-is-absolute@1.0.1 </tspan>
<tspan x="10" y="266">  ├── gpl-3.0@1.0.1 </tspan>
<tspan x="10" y="282">  ├── jslicense-0bsd@0.1.0 </tspan>
<tspan x="10" y="298">  ├── jslicense-bsd-2-clause@0.1.1 </tspan>
<tspan x="10" y="314">  ├── jslicense-bsd-3-clause@0.1.3 </tspan>
<tspan x="10" y="330">  ├── jslicense-isc@0.1.2 </tspan>
<tspan x="10" y="346">  ├── jslicense-mit@0.1.2 </tspan>
<tspan x="10" y="362">  ├── jslicense-upl-1.0@1.0.2 </tspan>
<tspan x="10" y="378">  ├── jslicense-wtfpl@0.1.1 </tspan>
<tspan x="10" y="394">  ├─┬ nopt@3.0.6 </tspan>
<tspan x="10" y="410">  │ └── abbrev@1.1.0 </tspan>
<tspan x="10" y="426">  ├─┬ normalize-package-data@2.3.8 </tspan>
<tspan x="10" y="442">  │ ├── hosted-git-info@2.4.2 </tspan>
<tspan x="10" y="458">  │ ├─┬ is-builtin-module@1.0.0 </tspan>
<tspan x="10" y="474">  │ │ └── builtin-modules@1.1.1 </tspan>
<tspan x="10" y="490">  │ ├── semver@5.3.0 </tspan>
<tspan x="10" y="506">  │ └─┬ validate-npm-package-license@3.0.1 </tspan>
<tspan x="10" y="522">  │   ├─┬ spdx-correct@1.0.2 </tspan>
<tspan x="10" y="538">  │   │ └── spdx-license-ids@1.2.2 </tspan>
<tspan x="10" y="554">  │   └── spdx-expression-parse@1.0.4 </tspan>
<tspan x="10" y="570">  └── word-wrap@1.2.1</tspan>
</text>
</svg>
